# xmcd CD database file
#
# Track frame offsets:
#	150
#	15088
#	33725
#	51565
#	70458
#	88800
#	108115
#	125540
#	145223
#	163250
#	179623
#	202518
#	219353
#	235378
#	255368
#	275595
#	291075
#
# Disc length: 4087 seconds
#
# Revision: 0
# Processed by: cddbd v1.5.2PL0 Copyright (c) Steve Scherf et al.
# Submitted via: CDex 1.70beta2
#
DISCID=fa0ff511
DTITLE=Simply Red 25 - The Greatest Hits
DYEAR=2009
DGENRE=Jazz
TTITLE0=Sunrise
TTITLE1=Stars
TTITLE2=A New Flame
TTITLE3=Holding Back The Years
TTITLE4=Your Mirror
TTITLE5=For Your Babies
TTITLE6=It's Only Love
TTITLE7=The Right Thing
TTITLE8=Something Got Me Started
TTITLE9=So Not Over You
TTITLE10=You Make Me Feel Brand New
TTITLE11=Say You Love Me
TTITLE12=Home
TTITLE13=Fairground
TTITLE14=Money's Too Tight (To Mention)
TTITLE15=If You Don't Know Me By Now
TTITLE16=Go Now
EXTD=YEAR: 2009
EXTT0=
EXTT1=
EXTT2=
EXTT3=
EXTT4=
EXTT5=
EXTT6=
EXTT7=
EXTT8=
EXTT9=
EXTT10=
EXTT11=
EXTT12=
EXTT13=
EXTT14=
EXTT15=
EXTT16=
PLAYORDER=
